<mxfile host="app.diagrams.net" agent="Mozilla/5.0 (Windows NT 10.0; Win64; x64) AppleWebKit/537.36 (KHTML, like Gecko) Chrome/136.0.0.0 Safari/537.36" version="27.0.5">
  <diagram name="Page-1" id="ah4-4o1aJsZ9hj4hK-Dv">
    <mxGraphModel dx="1218" dy="953" grid="1" gridSize="10" guides="1" tooltips="1" connect="1" arrows="1" fold="1" page="1" pageScale="1" pageWidth="827" pageHeight="1169" math="0" shadow="0">
      <root>
        <mxCell id="0" />
        <mxCell id="1" parent="0" />
        <mxCell id="g1hJZHoWsPPVvcOoxAAN-8" value="&lt;font&gt;Vanjski izvori&lt;br&gt;&lt;/font&gt;" style="rounded=0;whiteSpace=wrap;html=1;fontColor=light-dark(#000000,#000000);fillColor=light-dark(#FFFFFF,#7EA6E0);strokeColor=light-dark(#000000,#000000);" vertex="1" parent="1">
          <mxGeometry x="670" y="730" width="140" height="60" as="geometry" />
        </mxCell>
        <mxCell id="g1hJZHoWsPPVvcOoxAAN-13" value="&lt;font&gt;Analitičar&lt;/font&gt;" style="rounded=0;whiteSpace=wrap;html=1;fontColor=light-dark(#000000,#000000);fillColor=light-dark(#FFFFFF,#7EA6E0);strokeColor=light-dark(#000000,#000000);" vertex="1" parent="1">
          <mxGeometry x="100" y="350" width="140" height="60" as="geometry" />
        </mxCell>
        <mxCell id="g1hJZHoWsPPVvcOoxAAN-23" value="3.2: Tehnička analiza" style="rounded=0;whiteSpace=wrap;html=1;fontColor=light-dark(#000000,#000000);fillColor=light-dark(#FFFFFF,#7EA6E0);strokeColor=light-dark(#000000,#000000);" vertex="1" parent="1">
          <mxGeometry x="380" y="524.5" width="180" height="60" as="geometry" />
        </mxCell>
        <mxCell id="g1hJZHoWsPPVvcOoxAAN-24" value="3.3: Temeljna analiza" style="rounded=0;whiteSpace=wrap;html=1;fontColor=light-dark(#000000,#000000);fillColor=light-dark(#FFFFFF,#7EA6E0);strokeColor=light-dark(#000000,#000000);" vertex="1" parent="1">
          <mxGeometry x="380" y="640" width="180" height="60" as="geometry" />
        </mxCell>
        <mxCell id="g1hJZHoWsPPVvcOoxAAN-25" value="3.4: Predviđanje tržišta" style="rounded=0;whiteSpace=wrap;html=1;fontColor=light-dark(#000000,#000000);fillColor=light-dark(#FFFFFF,#7EA6E0);strokeColor=light-dark(#000000,#000000);" vertex="1" parent="1">
          <mxGeometry x="380" y="760" width="180" height="60" as="geometry" />
        </mxCell>
        <mxCell id="g1hJZHoWsPPVvcOoxAAN-40" value="&lt;div&gt;&lt;font style=&quot;color: light-dark(rgb(0, 0, 0), rgb(0, 0, 0)); background-color: light-dark(rgb(255, 255, 255), rgb(255, 255, 255));&quot;&gt;API poziv&lt;/font&gt;&lt;/div&gt;" style="endArrow=classic;html=1;rounded=0;entryX=0;entryY=0.25;entryDx=0;entryDy=0;exitX=1;exitY=0;exitDx=0;exitDy=0;strokeColor=light-dark(#000000,#000000);" edge="1" parent="1" source="g1hJZHoWsPPVvcOoxAAN-25" target="g1hJZHoWsPPVvcOoxAAN-8">
          <mxGeometry x="-0.0918" y="3" width="50" height="50" relative="1" as="geometry">
            <mxPoint x="520" y="720" as="sourcePoint" />
            <mxPoint x="360" y="795" as="targetPoint" />
            <mxPoint as="offset" />
          </mxGeometry>
        </mxCell>
        <mxCell id="g1hJZHoWsPPVvcOoxAAN-41" value="&lt;font style=&quot;color: light-dark(rgb(0, 0, 0), rgb(0, 0, 0));&quot;&gt;&lt;span style=&quot;background-color: light-dark(rgb(255, 255, 255), rgb(255, 255, 255));&quot;&gt;povrat podataka&lt;/span&gt;&lt;/font&gt;" style="endArrow=classic;html=1;rounded=0;entryX=1.021;entryY=0.729;entryDx=0;entryDy=0;exitX=0;exitY=0.75;exitDx=0;exitDy=0;strokeColor=light-dark(#000000,#000000);entryPerimeter=0;" edge="1" parent="1" source="g1hJZHoWsPPVvcOoxAAN-8" target="g1hJZHoWsPPVvcOoxAAN-25">
          <mxGeometry x="0.0044" width="50" height="50" relative="1" as="geometry">
            <mxPoint x="530" y="730" as="sourcePoint" />
            <mxPoint x="640" y="765" as="targetPoint" />
            <mxPoint as="offset" />
          </mxGeometry>
        </mxCell>
        <mxCell id="g1hJZHoWsPPVvcOoxAAN-50" value="3.1: Dohvat povijesnih podataka" style="rounded=0;whiteSpace=wrap;html=1;fontColor=light-dark(#000000,#000000);fillColor=light-dark(#FFFFFF,#7EA6E0);strokeColor=light-dark(#000000,#000000);" vertex="1" parent="1">
          <mxGeometry x="380" y="410" width="180" height="60" as="geometry" />
        </mxCell>
        <mxCell id="g1hJZHoWsPPVvcOoxAAN-51" value="D2&lt;br&gt;Baza tržišnih podataka" style="rounded=0;whiteSpace=wrap;html=1;fontColor=light-dark(#000000,#000000);fillColor=light-dark(#FFFFFF,#7EA6E0);strokeColor=light-dark(#000000,#000000);" vertex="1" parent="1">
          <mxGeometry x="110" y="550" width="180" height="60" as="geometry" />
        </mxCell>
        <mxCell id="g1hJZHoWsPPVvcOoxAAN-52" value="D3&lt;br&gt;Baza izvještaja" style="rounded=0;whiteSpace=wrap;html=1;fontColor=light-dark(#000000,#000000);fillColor=light-dark(#FFFFFF,#7EA6E0);strokeColor=light-dark(#000000,#000000);" vertex="1" parent="1">
          <mxGeometry x="90" y="700" width="180" height="60" as="geometry" />
        </mxCell>
        <mxCell id="g1hJZHoWsPPVvcOoxAAN-53" value="&lt;font style=&quot;color: light-dark(rgb(0, 0, 0), rgb(0, 0, 0));&quot;&gt;&lt;span style=&quot;background-color: light-dark(rgb(255, 255, 255), rgb(255, 255, 255));&quot;&gt;izvještaji&lt;/span&gt;&lt;/font&gt;" style="endArrow=classic;html=1;rounded=0;entryX=-0.006;entryY=0.678;entryDx=0;entryDy=0;exitX=0.75;exitY=1;exitDx=0;exitDy=0;strokeColor=light-dark(#000000,#000000);entryPerimeter=0;" edge="1" parent="1" source="g1hJZHoWsPPVvcOoxAAN-52" target="g1hJZHoWsPPVvcOoxAAN-25">
          <mxGeometry x="-0.0918" y="3" width="50" height="50" relative="1" as="geometry">
            <mxPoint x="230" y="805" as="sourcePoint" />
            <mxPoint x="340" y="800" as="targetPoint" />
            <mxPoint as="offset" />
          </mxGeometry>
        </mxCell>
        <mxCell id="g1hJZHoWsPPVvcOoxAAN-54" value="&lt;font style=&quot;color: light-dark(rgb(0, 0, 0), rgb(0, 0, 0));&quot;&gt;&lt;span style=&quot;background-color: light-dark(rgb(255, 255, 255), rgb(255, 255, 255));&quot;&gt;rezultati analize&lt;/span&gt;&lt;/font&gt;" style="endArrow=classic;html=1;rounded=0;entryX=1;entryY=0.25;entryDx=0;entryDy=0;exitX=0;exitY=0.5;exitDx=0;exitDy=0;strokeColor=light-dark(#000000,#000000);" edge="1" parent="1" source="g1hJZHoWsPPVvcOoxAAN-24" target="g1hJZHoWsPPVvcOoxAAN-52">
          <mxGeometry x="-0.0948" y="3" width="50" height="50" relative="1" as="geometry">
            <mxPoint x="235" y="770" as="sourcePoint" />
            <mxPoint x="349" y="811" as="targetPoint" />
            <mxPoint as="offset" />
          </mxGeometry>
        </mxCell>
        <mxCell id="g1hJZHoWsPPVvcOoxAAN-55" value="&lt;font style=&quot;color: light-dark(rgb(0, 0, 0), rgb(0, 0, 0));&quot;&gt;&lt;span style=&quot;background-color: light-dark(rgb(255, 255, 255), rgb(255, 255, 255));&quot;&gt;filtrirani podaci&lt;/span&gt;&lt;/font&gt;" style="endArrow=classic;html=1;rounded=0;entryX=0;entryY=0.75;entryDx=0;entryDy=0;exitX=0;exitY=0.5;exitDx=0;exitDy=0;strokeColor=light-dark(#000000,#000000);" edge="1" parent="1" target="g1hJZHoWsPPVvcOoxAAN-23">
          <mxGeometry x="-0.0948" y="3" width="50" height="50" relative="1" as="geometry">
            <mxPoint x="290" y="595" as="sourcePoint" />
            <mxPoint x="180" y="640" as="targetPoint" />
            <mxPoint as="offset" />
          </mxGeometry>
        </mxCell>
        <mxCell id="g1hJZHoWsPPVvcOoxAAN-56" value="&lt;font style=&quot;color: light-dark(rgb(0, 0, 0), rgb(0, 0, 0));&quot;&gt;&lt;span style=&quot;background-color: light-dark(rgb(255, 255, 255), rgb(255, 255, 255));&quot;&gt;čitanje podataka&lt;/span&gt;&lt;/font&gt;" style="endArrow=classic;html=1;rounded=0;entryX=0.25;entryY=0;entryDx=0;entryDy=0;exitX=0;exitY=0.5;exitDx=0;exitDy=0;strokeColor=light-dark(#000000,#000000);" edge="1" parent="1" source="g1hJZHoWsPPVvcOoxAAN-50" target="g1hJZHoWsPPVvcOoxAAN-51">
          <mxGeometry x="-0.0948" y="3" width="50" height="50" relative="1" as="geometry">
            <mxPoint x="300" y="605" as="sourcePoint" />
            <mxPoint x="390" y="580" as="targetPoint" />
            <mxPoint as="offset" />
          </mxGeometry>
        </mxCell>
        <mxCell id="g1hJZHoWsPPVvcOoxAAN-57" value="" style="endArrow=classic;html=1;rounded=0;entryX=0.5;entryY=0;entryDx=0;entryDy=0;exitX=0.5;exitY=1;exitDx=0;exitDy=0;strokeColor=light-dark(#000000,#000000);" edge="1" parent="1" source="g1hJZHoWsPPVvcOoxAAN-50" target="g1hJZHoWsPPVvcOoxAAN-23">
          <mxGeometry width="50" height="50" relative="1" as="geometry">
            <mxPoint x="440" y="500" as="sourcePoint" />
            <mxPoint x="380" y="630" as="targetPoint" />
          </mxGeometry>
        </mxCell>
        <mxCell id="g1hJZHoWsPPVvcOoxAAN-58" value="" style="endArrow=classic;html=1;rounded=0;entryX=0.5;entryY=0;entryDx=0;entryDy=0;exitX=0.5;exitY=1;exitDx=0;exitDy=0;strokeColor=light-dark(#000000,#000000);" edge="1" parent="1">
          <mxGeometry width="50" height="50" relative="1" as="geometry">
            <mxPoint x="469.66" y="585" as="sourcePoint" />
            <mxPoint x="469.66" y="640" as="targetPoint" />
          </mxGeometry>
        </mxCell>
        <mxCell id="g1hJZHoWsPPVvcOoxAAN-59" value="" style="endArrow=classic;html=1;rounded=0;entryX=0.5;entryY=0;entryDx=0;entryDy=0;exitX=0.5;exitY=1;exitDx=0;exitDy=0;strokeColor=light-dark(#000000,#000000);" edge="1" parent="1" target="g1hJZHoWsPPVvcOoxAAN-25">
          <mxGeometry width="50" height="50" relative="1" as="geometry">
            <mxPoint x="469.66" y="700" as="sourcePoint" />
            <mxPoint x="469.66" y="755" as="targetPoint" />
          </mxGeometry>
        </mxCell>
        <mxCell id="g1hJZHoWsPPVvcOoxAAN-60" value="&lt;font style=&quot;color: light-dark(rgb(0, 0, 0), rgb(0, 0, 0));&quot;&gt;&lt;span style=&quot;background-color: light-dark(rgb(255, 255, 255), rgb(255, 255, 255));&quot;&gt;rezultati&lt;/span&gt;&lt;/font&gt;" style="endArrow=classic;html=1;rounded=0;entryX=1;entryY=0.25;entryDx=0;entryDy=0;exitX=0;exitY=0.25;exitDx=0;exitDy=0;strokeColor=light-dark(#000000,#000000);" edge="1" parent="1" source="g1hJZHoWsPPVvcOoxAAN-50" target="g1hJZHoWsPPVvcOoxAAN-13">
          <mxGeometry x="-0.0948" y="3" width="50" height="50" relative="1" as="geometry">
            <mxPoint x="390" y="450" as="sourcePoint" />
            <mxPoint x="165" y="560" as="targetPoint" />
            <mxPoint as="offset" />
          </mxGeometry>
        </mxCell>
        <mxCell id="g1hJZHoWsPPVvcOoxAAN-61" value="&lt;font style=&quot;color: light-dark(rgb(0, 0, 0), rgb(0, 0, 0));&quot;&gt;&lt;span style=&quot;background-color: light-dark(rgb(255, 255, 255), rgb(255, 255, 255));&quot;&gt;zahtjev za analizom&lt;/span&gt;&lt;/font&gt;" style="endArrow=classic;html=1;rounded=0;entryX=0;entryY=0.75;entryDx=0;entryDy=0;exitX=0.75;exitY=1;exitDx=0;exitDy=0;strokeColor=light-dark(#000000,#000000);" edge="1" parent="1" source="g1hJZHoWsPPVvcOoxAAN-13" target="g1hJZHoWsPPVvcOoxAAN-50">
          <mxGeometry x="-0.0948" y="3" width="50" height="50" relative="1" as="geometry">
            <mxPoint x="400" y="460" as="sourcePoint" />
            <mxPoint x="175" y="570" as="targetPoint" />
            <mxPoint as="offset" />
          </mxGeometry>
        </mxCell>
      </root>
    </mxGraphModel>
  </diagram>
</mxfile>
